<svg xmlns="http://www.w3.org/2000/svg" fill="none" stroke="currentColor" stroke-linecap="round" stroke-linejoin="round" stroke-width="1.75" aria-hidden="true" viewBox="0 0 24 24">
  <path d="M21.34.6H2.66A2.06 2.06 0 0 0 .6 2.66v18.68a2.06 2.06 0 0 0 2.06 2.06h18.68a2.06 2.06 0 0 0 2.06-2.06V2.66A2.06 2.06 0 0 0 21.34.6M7.65 20.29a.6.6 0 0 1-.6.6H4.5a.6.6 0 0 1-.6-.6V9.58c0-.34.27-.6.6-.6h2.55c.33 0 .6.26.6.6zM5.78 7.97a2.43 2.43 0 1 1 0-4.86 2.43 2.43 0 0 1 0 4.86M21 20.34a.55.55 0 0 1-.55.55H17.7a.55.55 0 0 1-.55-.55V15.3c0-.75.22-3.28-1.96-3.28-1.69 0-2.03 1.73-2.1 2.51v5.8a.55.55 0 0 1-.55.55H9.9a.55.55 0 0 1-.55-.55V9.53c0-.3.24-.55.55-.55h2.65c.3 0 .55.24.55.55v.93c.63-.94 1.56-1.66 3.54-1.66 4.4 0 4.37 4.1 4.37 6.35z" />
</svg>
